<svg width="114" height="25" viewBox="0 0 114 25" fill="none" xmlns="http://www.w3.org/2000/svg">
<g clip-path="url(#clip0_521_675)">
<path fill-rule="evenodd" clip-rule="evenodd" d="M2.68176 24.5C1.79915 24.5 1.13154 24.2737 0.678931 23.8211C0.226311 23.3458 0 22.6782 0 21.8182V3.18174C0 2.32177 0.226311 1.66548 0.678931 1.21286C1.13154 0.737615 1.78784 0.499992 2.64781 0.499992C4.39038 0.499992 5.26167 1.39391 5.26167 3.18174V20.053H14.3593C15.8756 20.053 16.6337 20.7885 16.6337 22.2595C16.6337 23.7532 15.8756 24.5 14.3593 24.5H2.68176ZM33.5014 1.75494C33.1167 0.985824 32.3307 0.499992 31.4707 0.499992C30.6108 0.499992 29.8249 0.985824 29.4403 1.75494L22.9539 14.7276L19.7108 21.214C19.1501 22.3355 19.6046 23.6991 20.726 24.2598C21.8475 24.8206 23.2111 24.366 23.7719 23.2445L26.0808 18.6266L40.3573 24.3372C41.2323 24.6871 42.2327 24.4601 42.8708 23.7665C43.5092 23.0728 43.6524 22.057 43.2309 21.214L33.5014 1.75494ZM43.2309 21.214L41.2004 22.2293L41.2003 22.2292L43.2309 21.214ZM36.4994 17.9038L28.1184 14.5514L31.4708 7.84658L36.4994 17.9038ZM46.3074 22.0104C46.3074 23.6701 47.1042 24.5 48.6976 24.5C50.2909 24.5 51.0876 23.6701 51.0876 22.0104V9.26348L61.8428 22.973C62.2633 23.5041 62.6505 23.8914 63.0046 24.1349C63.3808 24.3783 63.8788 24.5 64.4984 24.5C65.1402 24.5 65.6492 24.2898 66.0254 23.8693C66.4016 23.4267 66.5897 22.8402 66.5897 22.11V2.95642C66.5897 1.3188 65.793 0.499992 64.1996 0.499992C62.6063 0.499992 61.8096 1.3188 61.8096 2.95642V15.7033L51.0544 1.99377C50.6339 1.46265 50.2577 1.08644 49.9258 0.865139C49.5938 0.621707 49.1402 0.499992 48.5648 0.499992C47.8787 0.499992 47.3255 0.721293 46.9049 1.16389C46.5066 1.60649 46.3074 2.24826 46.3074 3.0892V22.0104ZM73.6023 24.5C71.764 24.5 70.8449 23.5809 70.8449 21.7426V3.25744C70.8449 1.41914 71.764 0.499992 73.6023 0.499992H80.2406C84.3257 0.499992 87.4917 1.54396 89.7386 3.63191C91.9854 5.69715 93.1088 8.64751 93.1088 12.483C93.1088 16.3184 91.9854 19.2801 89.7386 21.3681C87.4917 23.456 84.3257 24.5 80.2406 24.5H73.6023ZM76.1215 20.1766H79.9342C85.0407 20.1766 87.5939 17.6121 87.5939 12.483C87.5939 7.37659 85.0407 4.8234 79.9342 4.8234H76.1215V20.1766ZM97.3642 21.7426C97.3642 23.5809 98.2832 24.5 100.122 24.5H112.003C113.387 24.5 114.08 23.8078 114.08 22.4234C114.08 21.0617 113.387 20.3809 112.003 20.3809H102.403V14.3894H111.22C112.627 14.3894 113.331 13.6972 113.331 12.3128C113.331 10.9284 112.627 10.2362 111.22 10.2362H102.403V4.61914H112.003C113.387 4.61914 114.08 3.92694 114.08 2.54254C114.08 1.18084 113.387 0.499992 112.003 0.499992H100.122C98.2832 0.499992 97.3642 1.41914 97.3642 3.25744V21.7426Z" fill="#F2F2F3"/>
</g>
<defs>
<clipPath id="clip0_521_675">
<rect width="114" height="24" fill="white" transform="translate(0 0.5)"/>
</clipPath>
</defs>
</svg>
