<svg width="48" height="16" viewBox="0 0 48 16" fill="none" xmlns="http://www.w3.org/2000/svg">
<path d="M20.8001 15.5517H16.9118L19.3438 0.496948H23.232L20.8001 15.5517Z" fill="#D2D7DA"/>
<path d="M34.8956 0.864939C34.1287 0.560328 32.9122 0.223999 31.4081 0.223999C27.5683 0.223999 24.8643 2.2739 24.8477 5.20464C24.8158 7.36694 26.7837 8.56793 28.2555 9.2889C29.7598 10.0256 30.2712 10.5065 30.2712 11.1632C30.2559 12.1718 29.0556 12.6367 27.9361 12.6367C26.3837 12.6367 25.5519 12.397 24.2878 11.8358L23.7758 11.5953L23.2317 14.9748C24.1437 15.3907 25.8238 15.7598 27.5683 15.776C31.6482 15.776 34.3043 13.7578 34.3358 10.6346C34.3513 8.92086 33.3122 7.60769 31.0719 6.53463C29.712 5.84579 28.8791 5.38132 28.8791 4.67652C28.8951 4.03579 29.5835 3.37953 31.1187 3.37953C32.3828 3.34738 33.3116 3.65157 34.0152 3.95597L34.3668 4.11583L34.8956 0.864939Z" fill="#D2D7DA"/>
<path d="M40.0635 10.2183C40.3837 9.35346 41.6159 6.00614 41.6159 6.00614C41.5997 6.03828 41.9354 5.1253 42.1274 4.56482L42.3992 5.86203C42.3992 5.86203 43.1355 9.46564 43.2954 10.2183C42.6877 10.2183 40.8315 10.2183 40.0635 10.2183ZM44.8631 0.496948H41.8555C40.928 0.496948 40.2234 0.768991 39.8232 1.74605L34.0476 15.5515H38.1275C38.1275 15.5515 38.7992 13.6934 38.9435 13.2932C39.3911 13.2932 43.36 13.2932 43.9358 13.2932C44.0475 13.8217 44.3998 15.5515 44.3998 15.5515H48L44.8631 0.496948Z" fill="#D2D7DA"/>
<path d="M13.664 0.496948L9.85605 10.7628L9.43994 8.6808C8.73593 6.27839 6.52799 3.66823 4.06406 2.37038L7.55201 15.5357H11.6638L17.7756 0.496948H13.664Z" fill="#D2D7DA"/>
<path d="M6.32008 0.496948H0.0641229L0.00012207 0.801134C4.88016 2.05045 8.11211 5.06186 9.43997 8.68144L8.08 1.76244C7.8561 0.800921 7.16804 0.528665 6.32008 0.496948Z" fill="#D2D7DA"/>
</svg>
